<svg viewBox="0 0 620.2 620.2" xmlns="http://www.w3.org/2000/svg" data-name="Layer 2" id="Layer_2" shape-rendering="auto" style="height: 100%; width: 100%; background: rgba(255, 255, 255, 0);" width="199px" height="199px"><g class="ldl-scale" style="transform-origin: 50% 50%; transform: rotate(0deg) scale(0.8, 0.8);"><g class="ldl-ani" style="transform-origin: 310.1px 310.1px; transform: rotate(0deg); animation: 1.11111s linear 0s infinite normal forwards running spin-8779e8a3-d42e-41be-a2ef-6f2c10d0c8b0;">
  <defs>
    <style>
      .cls-1 {
        fill: #f47a9e;
      }
    </style>
  </defs>
  <g class="ldl-layer"><g class="ldl-ani"><g id="Final">
    <g class="ldl-layer"><g class="ldl-ani"><path d="M304.64,590.8h0c-33.58,51.14-112.77,31.81-119.02-29.05h0c-3.93-38.33-40.14-64.84-77.87-57.02h0c-59.9,12.41-102.24-57.25-63.62-104.7h0c24.32-29.88,17.46-74.24-14.74-95.38h0c-51.14-33.58-31.81-112.77,29.05-119.02h0c38.32-3.93,64.84-40.14,57.02-77.87h0c-12.41-59.9,57.25-102.24,104.7-63.62h0c29.88,24.32,74.24,17.46,95.38-14.74h0c33.58-51.14,112.77-31.81,119.02,29.05h0c3.93,38.33,40.14,64.84,77.87,57.02h0c59.9-12.41,102.24,57.25,63.62,104.7h0c-24.32,29.88-17.46,74.24,14.74,95.38h0c51.14,33.58,31.81,112.77-29.05,119.02h0c-38.32,3.93-64.84,40.14-57.02,77.87h0c12.41,59.9-57.25,102.24-104.7,63.62h0c-29.88-24.32-74.24-17.46-95.38,14.74Z" class="cls-1" style="fill: rgb(244, 122, 158);"></path></g></g>
  </g></g></g>
</g></g></svg>